<svg width="53" height="65" viewBox="0 0 53 65" fill="none" xmlns="http://www.w3.org/2000/svg">
<path d="M11.22 43C10.404 43 9.66 42.808 8.988 42.424C8.34 42.016 7.812 41.488 7.404 40.84C7.02 40.168 6.828 39.436 6.828 38.644V26.476C6.828 25.684 7.02 24.964 7.404 24.316C7.812 23.644 8.34 23.116 8.988 22.732C9.66 22.324 10.404 22.12 11.22 22.12H25.152V15.28H28.104V43H11.22ZM11.22 40.048H23.748C24.132 40.048 24.456 39.916 24.72 39.652C25.008 39.364 25.152 39.028 25.152 38.644V26.476C25.152 26.092 25.008 25.768 24.72 25.504C24.456 25.216 24.132 25.072 23.748 25.072H11.22C10.836 25.072 10.5 25.216 10.212 25.504C9.948 25.768 9.816 26.092 9.816 26.476V38.644C9.816 39.028 9.948 39.364 10.212 39.652C10.5 39.916 10.836 40.048 11.22 40.048Z" fill="black"/>
<path d="M8.988 42.424L8.45519 43.2702L8.47329 43.2816L8.49186 43.2922L8.988 42.424ZM7.404 40.84L6.53576 41.3361L6.54637 41.3547L6.55777 41.3728L7.404 40.84ZM7.404 24.316L6.54916 23.797L6.54371 23.8062L7.404 24.316ZM8.988 22.732L9.49783 23.5923L9.50698 23.5868L8.988 22.732ZM25.152 22.12V23.12H26.152V22.12H25.152ZM25.152 15.28V14.28H24.152V15.28H25.152ZM28.104 15.28H29.104V14.28H28.104V15.28ZM28.104 43V44H29.104V43H28.104ZM24.72 39.652L25.4271 40.3591L25.4271 40.3591L24.72 39.652ZM24.72 25.504L23.9828 26.1797L24.0122 26.2118L24.0443 26.2411L24.72 25.504ZM10.212 25.504L9.50489 24.7969L9.50489 24.7969L10.212 25.504ZM10.212 39.652L9.47485 40.3277L9.50423 40.3598L9.53628 40.3892L10.212 39.652ZM11.22 42C10.5682 42 9.99675 41.8487 9.48414 41.5558L8.49186 43.2922C9.32325 43.7673 10.2398 44 11.22 44V42ZM9.52081 41.5778C8.99942 41.2495 8.57852 40.8286 8.25023 40.3072L6.55777 41.3728C7.04548 42.1474 7.68058 42.7825 8.45519 43.2702L9.52081 41.5778ZM8.27224 40.3439C7.97666 39.8266 7.828 39.2662 7.828 38.644H5.828C5.828 39.6058 6.06334 40.5094 6.53576 41.3361L8.27224 40.3439ZM7.828 38.644V26.476H5.828V38.644H7.828ZM7.828 26.476C7.828 25.8538 7.97653 25.3114 8.26429 24.8258L6.54371 23.8062C6.06347 24.6166 5.828 25.5142 5.828 26.476H7.828ZM8.25879 24.835C8.58542 24.297 8.99734 23.8889 9.4978 23.5923L8.4782 21.8717C7.68266 22.3431 7.03858 22.991 6.54921 23.797L8.25879 24.835ZM9.50698 23.5868C10.0164 23.2775 10.5797 23.12 11.22 23.12V21.12C10.2283 21.12 9.30358 21.3705 8.46902 21.8772L9.50698 23.5868ZM11.22 23.12H25.152V21.12H11.22V23.12ZM26.152 22.12V15.28H24.152V22.12H26.152ZM25.152 16.28H28.104V14.28H25.152V16.28ZM27.104 15.28V43H29.104V15.28H27.104ZM28.104 42H11.22V44H28.104V42ZM11.22 41.048H23.748V39.048H11.22V41.048ZM23.748 41.048C24.3888 41.048 24.9697 40.8165 25.4271 40.3591L24.0129 38.9449C23.9423 39.0155 23.8752 39.048 23.748 39.048V41.048ZM25.4271 40.3591C25.89 39.8962 26.152 39.3106 26.152 38.644H24.152C24.152 38.7454 24.126 38.8318 24.0129 38.9449L25.4271 40.3591ZM26.152 38.644V26.476H24.152V38.644H26.152ZM26.152 26.476C26.152 25.8062 25.8863 25.2165 25.3957 24.7668L24.0443 26.2411C24.1297 26.3195 24.152 26.3778 24.152 26.476H26.152ZM25.4572 24.8283C25.0075 24.3377 24.4178 24.072 23.748 24.072V26.072C23.8462 26.072 23.9045 26.0943 23.9828 26.1797L25.4572 24.8283ZM23.748 24.072H11.22V26.072H23.748V24.072ZM11.22 24.072C10.5534 24.072 9.9678 24.334 9.50489 24.7969L10.9191 26.2111C11.0322 26.098 11.1186 26.072 11.22 26.072V24.072ZM9.50489 24.7969C9.04746 25.2543 8.816 25.8352 8.816 26.476H10.816C10.816 26.3488 10.8485 26.2817 10.9191 26.2111L9.50489 24.7969ZM8.816 26.476V38.644H10.816V26.476H8.816ZM8.816 38.644C8.816 39.283 9.04505 39.8589 9.47485 40.3277L10.9492 38.9763C10.851 38.8691 10.816 38.773 10.816 38.644H8.816ZM9.53628 40.3892C10.0051 40.819 10.581 41.048 11.22 41.048V39.048C11.091 39.048 10.9949 39.013 10.8877 38.9148L9.53628 40.3892Z" fill="url(#paint0_linear_1_14)"/>
<path d="M25.172 36V15.12H28.124V36H25.172ZM25.172 11.232V8.28H28.124V11.232H25.172Z" fill="black"/>
<path d="M25.172 36H24.172V37H25.172V36ZM25.172 15.12V14.12H24.172V15.12H25.172ZM28.124 15.12H29.124V14.12H28.124V15.12ZM28.124 36V37H29.124V36H28.124ZM25.172 11.232H24.172V12.232H25.172V11.232ZM25.172 8.28V7.28H24.172V8.28H25.172ZM28.124 8.28H29.124V7.28H28.124V8.28ZM28.124 11.232V12.232H29.124V11.232H28.124ZM26.172 36V15.12H24.172V36H26.172ZM25.172 16.12H28.124V14.12H25.172V16.12ZM27.124 15.12V36H29.124V15.12H27.124ZM28.124 35H25.172V37H28.124V35ZM26.172 11.232V8.28H24.172V11.232H26.172ZM25.172 9.28H28.124V7.28H25.172V9.28ZM27.124 8.28V11.232H29.124V8.28H27.124ZM28.124 10.232H25.172V12.232H28.124V10.232Z" fill="url(#paint1_linear_1_14)"/>
<path d="M10.806 42C10.194 42 9.636 41.856 9.132 41.568C8.646 41.262 8.259 40.866 7.971 40.38C7.683 39.876 7.539 39.327 7.539 38.733V25.854C7.539 25.242 7.683 24.693 7.971 24.207C8.259 23.703 8.646 23.307 9.132 23.019C9.636 22.713 10.194 22.56 10.806 22.56H23.901C24.495 22.56 25.035 22.713 25.521 23.019C26.025 23.307 26.421 23.703 26.709 24.207C27.015 24.693 27.168 25.242 27.168 25.854V38.733C27.168 39.327 27.015 39.876 26.709 40.38C26.421 40.866 26.025 41.262 25.521 41.568C25.035 41.856 24.495 42 23.901 42H10.806ZM10.023 39.786H23.901C24.189 39.786 24.432 39.687 24.63 39.489C24.846 39.273 24.954 39.021 24.954 38.733V27.474L10.023 39.786ZM9.753 37.113L24.657 24.801H10.806C10.518 24.801 10.266 24.909 10.05 25.125C9.852 25.323 9.753 25.566 9.753 25.854V37.113Z" fill="black"/>
<path d="M9.132 41.568L8.59919 42.4142L8.61729 42.4256L8.63586 42.4362L9.132 41.568ZM7.971 40.38L7.10276 40.8761L7.10668 40.883L7.11071 40.8898L7.971 40.38ZM7.971 24.207L8.83129 24.7168L8.83532 24.71L8.83924 24.7031L7.971 24.207ZM9.132 23.019L9.64183 23.8793L9.65098 23.8738L9.132 23.019ZM25.521 23.019L24.9882 23.8652L25.0063 23.8766L25.0249 23.8872L25.521 23.019ZM26.709 24.207L25.8408 24.7031L25.8514 24.7217L25.8628 24.7398L26.709 24.207ZM26.709 40.38L25.8542 39.861L25.8487 39.8702L26.709 40.38ZM25.521 41.568L26.0308 42.4283L26.04 42.4228L25.521 41.568ZM10.023 39.786L9.3868 39.0145L7.23844 40.786H10.023V39.786ZM24.63 39.489L25.3371 40.1961L25.3371 40.1961L24.63 39.489ZM24.954 27.474H25.954V25.3533L24.3178 26.7025L24.954 27.474ZM9.753 37.113H8.753V39.2362L10.3899 37.884L9.753 37.113ZM24.657 24.801L25.2939 25.572L27.4377 23.801H24.657V24.801ZM10.05 25.125L10.7571 25.8321L10.7571 25.8321L10.05 25.125ZM10.806 41C10.3582 41 9.97275 40.8967 9.62814 40.6998L8.63586 42.4362C9.29925 42.8153 10.0298 43 10.806 43V41ZM9.66481 40.7218C9.31081 40.4989 9.03699 40.2173 8.83129 39.8702L7.11071 40.8898C7.48101 41.5147 7.98119 42.0251 8.59919 42.4142L9.66481 40.7218ZM8.83924 39.8839C8.63966 39.5346 8.539 39.1572 8.539 38.733H6.539C6.539 39.4968 6.72634 40.2174 7.10276 40.8761L8.83924 39.8839ZM8.539 38.733V25.854H6.539V38.733H8.539ZM8.539 25.854C8.539 25.4059 8.64232 25.0357 8.83129 24.7168L7.11071 23.6972C6.72369 24.3503 6.539 25.0781 6.539 25.854H8.539ZM8.83924 24.7031C9.04379 24.3452 9.30903 24.0765 9.6418 23.8793L8.6222 22.1587C7.98297 22.5375 7.47421 23.0608 7.10276 23.7109L8.83924 24.7031ZM9.65098 23.8738C9.99242 23.6665 10.3697 23.56 10.806 23.56V21.56C10.0183 21.56 9.27958 21.7595 8.61302 22.1642L9.65098 23.8738ZM10.806 23.56H23.901V21.56H10.806V23.56ZM23.901 23.56C24.3133 23.56 24.6674 23.6633 24.9882 23.8652L26.0538 22.1728C25.4026 21.7627 24.6767 21.56 23.901 21.56V23.56ZM25.0249 23.8872C25.3738 24.0867 25.6413 24.3542 25.8408 24.7031L27.5772 23.7109C27.2007 23.0518 26.6762 22.5273 26.0171 22.1508L25.0249 23.8872ZM25.8628 24.7398C26.0616 25.0557 26.168 25.4176 26.168 25.854H28.168C28.168 25.0664 27.9684 24.3303 27.5552 23.6742L25.8628 24.7398ZM26.168 25.854V38.733H28.168V25.854H26.168ZM26.168 38.733C26.168 39.1454 26.0645 39.5147 25.8542 39.861L27.5638 40.899C27.9655 40.2373 28.168 39.5086 28.168 38.733H26.168ZM25.8487 39.8702C25.6481 40.2087 25.372 40.4886 25.002 40.7132L26.04 42.4228C26.678 42.0354 27.1939 41.5233 27.5693 40.8898L25.8487 39.8702ZM25.0112 40.7077C24.6876 40.8995 24.3252 41 23.901 41V43C24.6648 43 25.3824 42.8125 26.0308 42.4283L25.0112 40.7077ZM23.901 41H10.806V43H23.901V41ZM10.023 40.786H23.901V38.786H10.023V40.786ZM23.901 40.786C24.4458 40.786 24.9457 40.5875 25.3371 40.1961L23.9229 38.7819C23.9164 38.7883 23.9135 38.7901 23.9145 38.7895C23.9155 38.7888 23.9183 38.7872 23.922 38.7857C23.9256 38.7842 23.9272 38.784 23.9253 38.7844C23.9232 38.7848 23.9156 38.786 23.901 38.786V40.786ZM25.3371 40.1961C25.728 39.8052 25.954 39.3036 25.954 38.733H23.954C23.954 38.7422 23.9532 38.7461 23.9532 38.7461C23.9531 38.7463 23.9532 38.746 23.9534 38.7454C23.9536 38.7448 23.9537 38.7443 23.9539 38.7441C23.9542 38.7433 23.9534 38.7455 23.9496 38.751C23.9456 38.7568 23.9375 38.7672 23.9229 38.7819L25.3371 40.1961ZM25.954 38.733V27.474H23.954V38.733H25.954ZM24.3178 26.7025L9.3868 39.0145L10.6592 40.5575L25.5902 28.2455L24.3178 26.7025ZM10.3899 37.884L25.2939 25.572L24.0201 24.03L9.11612 36.342L10.3899 37.884ZM24.657 23.801H10.806V25.801H24.657V23.801ZM10.806 23.801C10.2354 23.801 9.7338 24.027 9.34289 24.4179L10.7571 25.8321C10.7718 25.8175 10.7822 25.8094 10.788 25.8054C10.7935 25.8016 10.7957 25.8008 10.7949 25.8011C10.7947 25.8013 10.7942 25.8014 10.7936 25.8016C10.793 25.8018 10.7927 25.8019 10.7929 25.8018C10.7929 25.8018 10.7968 25.801 10.806 25.801V23.801ZM9.34289 24.4179C8.95146 24.8093 8.753 25.3092 8.753 25.854H10.753C10.753 25.8394 10.7542 25.8318 10.7546 25.8297C10.755 25.8278 10.7548 25.8294 10.7533 25.833C10.7518 25.8367 10.7502 25.8395 10.7495 25.8405C10.7489 25.8415 10.7507 25.8386 10.7571 25.8321L9.34289 24.4179ZM8.753 25.854V37.113H10.753V25.854H8.753Z" fill="url(#paint2_linear_1_14)"/>
<path d="M24.944 42.8V15.08H27.896V21.92H41.864C42.656 21.92 43.376 22.124 44.024 22.532C44.696 22.916 45.224 23.444 45.608 24.116C46.016 24.764 46.22 25.484 46.22 26.276V42.8H43.268V26.276C43.268 25.892 43.124 25.568 42.836 25.304C42.572 25.016 42.248 24.872 41.864 24.872H29.336C28.952 24.872 28.616 25.016 28.328 25.304C28.04 25.568 27.896 25.892 27.896 26.276V42.8H24.944Z" fill="black"/>
<path d="M24.944 42.8H23.944V43.8H24.944V42.8ZM24.944 15.08V14.08H23.944V15.08H24.944ZM27.896 15.08H28.896V14.08H27.896V15.08ZM27.896 21.92H26.896V22.92H27.896V21.92ZM44.024 22.532L43.4912 23.3782L43.5093 23.3896L43.5279 23.4002L44.024 22.532ZM45.608 24.116L44.7398 24.6121L44.7504 24.6307L44.7618 24.6488L45.608 24.116ZM46.22 42.8V43.8H47.22V42.8H46.22ZM43.268 42.8H42.268V43.8H43.268V42.8ZM42.836 25.304L42.0988 25.9797L42.1282 26.0118L42.1603 26.0412L42.836 25.304ZM28.328 25.304L29.0037 26.0412L29.0197 26.0265L29.0351 26.0111L28.328 25.304ZM27.896 42.8V43.8H28.896V42.8H27.896ZM25.944 42.8V15.08H23.944V42.8H25.944ZM24.944 16.08H27.896V14.08H24.944V16.08ZM26.896 15.08V21.92H28.896V15.08H26.896ZM27.896 22.92H41.864V20.92H27.896V22.92ZM41.864 22.92C42.4743 22.92 43.0084 23.0743 43.4912 23.3782L44.5568 21.6858C43.7436 21.1737 42.8377 20.92 41.864 20.92V22.92ZM43.5279 23.4002C44.0448 23.6957 44.4443 24.0952 44.7398 24.6121L46.4762 23.6199C46.0037 22.7928 45.3472 22.1363 44.5201 21.6638L43.5279 23.4002ZM44.7618 24.6488C45.0657 25.1316 45.22 25.6657 45.22 26.276H47.22C47.22 25.3023 46.9663 24.3964 46.4542 23.5832L44.7618 24.6488ZM45.22 26.276V42.8H47.22V26.276H45.22ZM46.22 41.8H43.268V43.8H46.22V41.8ZM44.268 42.8V26.276H42.268V42.8H44.268ZM44.268 26.276C44.268 25.6062 44.0023 25.0165 43.5117 24.5668L42.1603 26.0412C42.2457 26.1195 42.268 26.1778 42.268 26.276H44.268ZM43.5732 24.6283C43.1235 24.1377 42.5338 23.872 41.864 23.872V25.872C41.9622 25.872 42.0205 25.8943 42.0988 25.9797L43.5732 24.6283ZM41.864 23.872H29.336V25.872H41.864V23.872ZM29.336 23.872C28.6694 23.872 28.0838 24.134 27.6209 24.5969L29.0351 26.0111C29.1482 25.898 29.2346 25.872 29.336 25.872V23.872ZM27.6523 24.5668C27.1617 25.0165 26.896 25.6062 26.896 26.276H28.896C28.896 26.1778 28.9183 26.1195 29.0037 26.0412L27.6523 24.5668ZM26.896 26.276V42.8H28.896V26.276H26.896ZM27.896 41.8H24.944V43.8H27.896V41.8Z" fill="url(#paint3_linear_1_14)"/>
<path d="M28.128 29V49.88H25.176V29H28.128ZM28.128 53.768V56.72H25.176V53.768H28.128Z" fill="black"/>
<path d="M28.128 29H29.128V28H28.128V29ZM28.128 49.88V50.88H29.128V49.88H28.128ZM25.176 49.88H24.176V50.88H25.176V49.88ZM25.176 29V28H24.176V29H25.176ZM28.128 53.768H29.128V52.768H28.128V53.768ZM28.128 56.72V57.72H29.128V56.72H28.128ZM25.176 56.72H24.176V57.72H25.176V56.72ZM25.176 53.768V52.768H24.176V53.768H25.176ZM27.128 29V49.88H29.128V29H27.128ZM28.128 48.88H25.176V50.88H28.128V48.88ZM26.176 49.88V29H24.176V49.88H26.176ZM25.176 30H28.128V28H25.176V30ZM27.128 53.768V56.72H29.128V53.768H27.128ZM28.128 55.72H25.176V57.72H28.128V55.72ZM26.176 56.72V53.768H24.176V56.72H26.176ZM25.176 54.768H28.128V52.768H25.176V54.768Z" fill="url(#paint4_linear_1_14)"/>
<path d="M29.264 42.8C28.448 42.8 27.704 42.608 27.032 42.224C26.384 41.816 25.868 41.288 25.484 40.64C25.1 39.968 24.908 39.236 24.908 38.444V15.08H27.86V21.92H36.896V24.872H27.86V38.444C27.86 38.828 27.992 39.164 28.256 39.452C28.544 39.716 28.88 39.848 29.264 39.848H36.896V42.8H29.264Z" fill="black"/>
<path d="M27.032 42.224L26.4992 43.0702L26.5173 43.0816L26.5359 43.0922L27.032 42.224ZM25.484 40.64L24.6158 41.1361L24.6197 41.143L24.6237 41.1498L25.484 40.64ZM24.908 15.08V14.08H23.908V15.08H24.908ZM27.86 15.08H28.86V14.08H27.86V15.08ZM27.86 21.92H26.86V22.92H27.86V21.92ZM36.896 21.92H37.896V20.92H36.896V21.92ZM36.896 24.872V25.872H37.896V24.872H36.896ZM27.86 24.872V23.872H26.86V24.872H27.86ZM28.256 39.452L27.5188 40.1277L27.5482 40.1598L27.5803 40.1892L28.256 39.452ZM36.896 39.848H37.896V38.848H36.896V39.848ZM36.896 42.8V43.8H37.896V42.8H36.896ZM29.264 41.8C28.6122 41.8 28.0407 41.6487 27.5281 41.3558L26.5359 43.0922C27.3673 43.5673 28.2838 43.8 29.264 43.8V41.8ZM27.5648 41.3778C27.0488 41.0529 26.646 40.6393 26.3443 40.1302L24.6237 41.1498C25.09 41.9367 25.7192 42.5791 26.4992 43.0702L27.5648 41.3778ZM26.3522 40.1439C26.0567 39.6266 25.908 39.0662 25.908 38.444H23.908C23.908 39.4058 24.1433 40.3094 24.6158 41.1361L26.3522 40.1439ZM25.908 38.444V15.08H23.908V38.444H25.908ZM24.908 16.08H27.86V14.08H24.908V16.08ZM26.86 15.08V21.92H28.86V15.08H26.86ZM27.86 22.92H36.896V20.92H27.86V22.92ZM35.896 21.92V24.872H37.896V21.92H35.896ZM36.896 23.872H27.86V25.872H36.896V23.872ZM26.86 24.872V38.444H28.86V24.872H26.86ZM26.86 38.444C26.86 39.083 27.089 39.6589 27.5188 40.1277L28.9932 38.7763C28.895 38.6691 28.86 38.573 28.86 38.444H26.86ZM27.5803 40.1892C28.0491 40.619 28.625 40.848 29.264 40.848V38.848C29.135 38.848 29.0389 38.813 28.9317 38.7148L27.5803 40.1892ZM29.264 40.848H36.896V38.848H29.264V40.848ZM35.896 39.848V42.8H37.896V39.848H35.896ZM36.896 41.8H29.264V43.8H36.896V41.8Z" fill="url(#paint5_linear_1_14)"/>
<defs>
<linearGradient id="paint0_linear_1_14" x1="21" y1="7" x2="21" y2="37" gradientUnits="userSpaceOnUse">
<stop stop-color="#150C0C"/>
<stop offset="0.0001" stop-color="#150C0C"/>
<stop offset="0.125" stop-color="#150C0C"/>
<stop offset="0.661458" stop-color="#747474"/>
<stop offset="1" stop-color="white"/>
</linearGradient>
<linearGradient id="paint1_linear_1_14" x1="36.8" y1="-1.90735e-06" x2="36.8" y2="32" gradientUnits="userSpaceOnUse">
<stop stop-color="#150C0C"/>
<stop offset="0.0001" stop-color="#150C0C"/>
<stop offset="0.125" stop-color="#150C0C"/>
<stop offset="0.661458" stop-color="#747474"/>
<stop offset="1" stop-color="white"/>
</linearGradient>
<linearGradient id="paint2_linear_1_14" x1="21" y1="15" x2="21" y2="44" gradientUnits="userSpaceOnUse">
<stop stop-color="#150C0C"/>
<stop offset="0.0001" stop-color="#150C0C"/>
<stop offset="0.125" stop-color="#150C0C"/>
<stop offset="0.661458" stop-color="#747474"/>
<stop offset="1" stop-color="white"/>
</linearGradient>
<linearGradient id="paint3_linear_1_14" x1="38" y1="6.8" x2="38" y2="36.8" gradientUnits="userSpaceOnUse">
<stop stop-color="#150C0C"/>
<stop offset="0.0001" stop-color="#150C0C"/>
<stop offset="0.125" stop-color="#150C0C"/>
<stop offset="0.661458" stop-color="#747474"/>
<stop offset="1" stop-color="white"/>
</linearGradient>
<linearGradient id="paint4_linear_1_14" x1="15" y1="65" x2="15" y2="35" gradientUnits="userSpaceOnUse">
<stop stop-color="#150C0C"/>
<stop offset="0.0001" stop-color="#150C0C"/>
<stop offset="0.125" stop-color="#150C0C"/>
<stop offset="0.661458" stop-color="#747474"/>
<stop offset="1" stop-color="white"/>
</linearGradient>
<linearGradient id="paint5_linear_1_14" x1="38" y1="6.8" x2="38" y2="36.8" gradientUnits="userSpaceOnUse">
<stop stop-color="#150C0C"/>
<stop offset="0.0001" stop-color="#150C0C"/>
<stop offset="0.125" stop-color="#150C0C"/>
<stop offset="0.661458" stop-color="#747474"/>
<stop offset="1" stop-color="white"/>
</linearGradient>
</defs>
</svg>
